<svg width="181" height="96" viewBox="0 0 181 96" fill="none" xmlns="http://www.w3.org/2000/svg">
    <path d="M12.1361 62H0.791198L16.9385 18.3604H28.1442L43.874 62H32.5987L30.3018 54.6919H14.4329L12.1361 62ZM22.2978 29.0789C21.9266 30.3781 21.509 31.7701 21.045 33.255C20.6274 34.6934 19.9082 37.0598 18.8874 40.3542L17.0777 46.1311H27.5874L25.7778 40.3542C25.1746 38.591 24.5714 36.735 23.9682 34.7862C23.365 32.791 22.8082 30.8885 22.2978 29.0789ZM55.1656 62H44.7255V27.6173H53.7736L54.1912 31.2365H54.4C55.8848 29.7053 57.4856 28.6149 59.2024 27.9653C60.9656 27.2693 63.0768 26.9213 65.5361 26.9213C69.4337 26.9213 72.3801 27.8725 74.3753 29.7749C76.3705 31.6773 77.3682 34.4846 77.3682 38.1966V62H66.9281V39.5886C66.9281 38.5214 66.4873 37.7094 65.6057 37.1526C64.7704 36.5958 63.5176 36.3174 61.8472 36.3174C60.5944 36.3174 59.388 36.4566 58.228 36.735C57.068 37.0134 56.0472 37.4078 55.1656 37.9182V62ZM91.8266 23.8589H80.8297V15.7156H91.8266V23.8589ZM91.5482 62H81.1081V27.6173H91.5482V62ZM105.909 62H95.4687V27.6173H105.213L105.561 30.1925H105.77C107.486 29.1253 109.134 28.3133 110.711 27.7565C112.289 27.1997 113.797 26.9213 115.235 26.9213C117.138 26.9213 118.762 27.2229 120.107 27.8261C121.453 28.3829 122.52 29.2413 123.309 30.4013H123.587C125.165 29.3341 126.928 28.4989 128.877 27.8957C130.872 27.2461 132.775 26.9213 134.584 26.9213C137.971 26.9213 140.477 27.8493 142.101 29.7053C143.771 31.5613 144.607 34.3918 144.607 38.1966V62H134.167V39.5886C134.167 38.4286 133.842 37.5934 133.192 37.083C132.543 36.5726 131.522 36.3174 130.13 36.3174C129.387 36.3174 128.599 36.387 127.763 36.5262C126.928 36.6654 126.093 36.8742 125.258 37.1526V62H114.818V39.5886C114.818 38.4286 114.493 37.5934 113.843 37.083C113.194 36.5726 112.173 36.3174 110.781 36.3174C110.038 36.3174 109.25 36.387 108.414 36.5262C107.579 36.6654 106.744 36.8742 105.909 37.1526V62ZM176.834 51.8383V60.1208C175.721 60.8168 173.842 61.42 171.197 61.9304C168.552 62.4408 165.768 62.696 162.845 62.696C157.277 62.696 153.263 61.304 150.804 58.52C148.345 55.6895 147.115 51.1191 147.115 44.8087C147.115 38.6374 148.414 34.1134 151.013 31.2365C153.611 28.3597 157.718 26.9213 163.332 26.9213C168.807 26.9213 172.658 28.0117 174.886 30.1925C177.159 32.3269 178.296 36.1318 178.296 41.607C178.296 43.0918 178.273 44.2751 178.226 45.1567C178.18 46.0383 178.087 47.0591 177.948 48.2191H157.625C157.671 50.1215 158.182 51.4439 159.156 52.1863C160.13 52.9287 161.917 53.2999 164.515 53.2999C166.742 53.2999 169.016 53.1607 171.336 52.8823C173.656 52.5575 175.489 52.2095 176.834 51.8383ZM163.332 35.8302C161.105 35.8302 159.597 36.2246 158.808 37.0134C158.019 37.7558 157.625 39.2406 157.625 41.4678H168.83V39.9366C168.784 38.3126 168.39 37.2222 167.647 36.6654C166.951 36.1086 165.513 35.8302 163.332 35.8302Z"
          fill="white"/>
    <path d="M11.9469 80.9141L6.87483 79.7099C5.19631 79.3207 4.01648 78.6882 3.33534 77.8125C2.6542 76.9124 2.31363 75.6352 2.31363 73.9811C2.31363 71.4998 2.99477 69.6753 4.35705 68.5076C5.71933 67.3399 7.83572 66.7561 10.7062 66.7561C11.8982 66.7561 12.9564 66.8169 13.8808 66.9386C14.8296 67.0359 15.7053 67.194 16.5081 67.4129V71.3538C15.1215 71.0862 14.0146 70.9159 13.1875 70.8429C12.3604 70.7456 11.509 70.697 10.6333 70.697C9.17368 70.697 8.1398 70.9281 7.53164 71.3903C6.92348 71.8282 6.6194 72.5944 6.6194 73.6891C6.6194 74.3216 6.74104 74.8082 6.9843 75.1487C7.25189 75.465 7.68977 75.6961 8.29793 75.842L13.224 77.0097C14.3674 77.2773 15.2188 77.557 15.7783 77.849C16.3378 78.1165 16.8 78.4571 17.1649 78.8707C17.5298 79.3329 17.7974 79.9045 17.9677 80.5857C18.1623 81.2668 18.2596 82.1061 18.2596 83.1035C18.2596 85.6821 17.5785 87.5309 16.2162 88.6499C14.8539 89.7689 12.7375 90.3284 9.86698 90.3284C8.38307 90.3284 6.94781 90.2311 5.5612 90.0365C4.19892 89.8419 3.12856 89.5986 2.35012 89.3067V85.1834C3.39615 85.4996 4.57598 85.755 5.88961 85.9497C7.22756 86.1199 8.55335 86.2051 9.86698 86.2051C11.3022 86.2051 12.2996 86.0105 12.8591 85.6212C13.443 85.2077 13.7349 84.4171 13.7349 83.2494C13.7349 82.5196 13.6132 81.9966 13.37 81.6804C13.151 81.3398 12.6767 81.0844 11.9469 80.9141ZM25.9615 90.3284C23.9424 90.3284 22.4341 89.8297 21.4368 88.8323C20.4394 87.8106 19.9407 86.2902 19.9407 84.2711V71.9741H24.1735V83.7238C24.1735 84.6482 24.4167 85.3172 24.9033 85.7307C25.3898 86.1443 26.1804 86.351 27.2751 86.351C27.9562 86.351 28.6495 86.2781 29.355 86.1321C30.0605 85.9861 30.7173 85.7915 31.3254 85.5483V71.9741H35.5582V90H31.6539L31.5079 88.7594H31.3984C30.401 89.2702 29.4401 89.6594 28.5157 89.927C27.6157 90.1946 26.7642 90.3284 25.9615 90.3284ZM42.7159 95.5464H38.4831V71.9741H42.1686L42.424 73.6162H42.6064C43.2876 72.9593 44.1025 72.4607 45.0512 72.1201C46 71.7795 47.0703 71.6092 48.2623 71.6092C50.695 71.6092 52.4222 72.339 53.4439 73.7986C54.4899 75.2339 55.0129 77.6179 55.0129 80.9506C55.0129 84.259 54.3683 86.6551 53.079 88.139C51.7897 89.5986 49.6733 90.3284 46.7298 90.3284C45.9027 90.3284 45.1486 90.2676 44.4674 90.146C43.7863 90.0487 43.2024 89.9027 42.7159 89.7081V95.5464ZM50.7801 80.9506C50.7801 78.8342 50.5004 77.3868 49.9409 76.6083C49.4057 75.8055 48.3475 75.4041 46.7663 75.4041C46.0121 75.4041 45.2945 75.4893 44.6134 75.6596C43.9322 75.8299 43.2997 76.0731 42.7159 76.3894V85.8037C43.1538 85.9983 43.6525 86.1443 44.212 86.2416C44.7958 86.3389 45.4526 86.3875 46.1824 86.3875C48.0556 86.3875 49.284 86.0226 49.8679 85.2928C50.476 84.5387 50.7801 83.0913 50.7801 80.9506ZM71.3608 85.5848V89.0148C70.7527 89.3797 69.7918 89.6959 68.4782 89.9635C67.1889 90.2068 65.8387 90.3284 64.4278 90.3284C61.5573 90.3284 59.4895 89.5986 58.2246 88.139C56.9839 86.6794 56.3636 84.2711 56.3636 80.9141C56.3636 77.6787 57.0204 75.319 58.334 73.8351C59.6477 72.3512 61.7276 71.6092 64.5738 71.6092C67.3227 71.6092 69.2688 72.1809 70.4121 73.3242C71.5555 74.4676 72.1271 76.4259 72.1271 79.1991C72.1271 79.7099 72.115 80.1843 72.0906 80.6222C72.0663 81.0357 72.0177 81.6195 71.9447 82.3737H60.6329C60.6572 83.8819 60.9856 84.9401 61.6181 85.5483C62.2749 86.1564 63.4304 86.4605 65.0846 86.4605C66.1793 86.4605 67.3105 86.3754 68.4782 86.2051C69.6458 86.0348 70.6067 85.828 71.3608 85.5848ZM64.5738 75.2947C63.0899 75.2947 62.056 75.5866 61.4722 76.1704C60.9126 76.7543 60.6329 77.8125 60.6329 79.345H68.2592V78.5787C68.2349 77.3381 67.9551 76.4867 67.42 76.0245C66.8848 75.5379 65.936 75.2947 64.5738 75.2947ZM78.4772 90H74.2444V71.9741H78.1488L78.3312 73.4337H78.4407C79.3408 72.8985 80.253 72.485 81.1774 72.1931C82.1018 71.9011 83.0019 71.7552 83.8776 71.7552C84.1209 71.7552 84.279 71.7552 84.352 71.7552C84.4493 71.7552 84.5223 71.7673 84.5709 71.7917V75.8785C84.425 75.8299 84.2304 75.8055 83.9871 75.8055C83.7682 75.7812 83.3789 75.769 82.8194 75.769C81.968 75.769 81.1774 75.842 80.4476 75.988C79.7178 76.1339 79.061 76.3407 78.4772 76.6083V90Z"
          fill="#F6764D"/>
    <line x1="94" y1="73" x2="176" y2="73" stroke="#B42323" stroke-width="2" stroke-linecap="round"/>
    <line x1="94" y1="81" x2="176" y2="81" stroke="#D3A913" stroke-width="2" stroke-linecap="round"/>
    <line x1="94" y1="89" x2="176" y2="89" stroke="#0F3043" stroke-width="2" stroke-linecap="round"/>
</svg>
